# xmcd
#
# Track frame offsets:
#	150
#	5555
#	28643
#	54738
#	81350
#	104545
#	128223
#	152248
#	177043
#	203725
#	230118
#
# Disc length: 3399 seconds
#
# Revision: 2
# Processed by: cddbd v1.4PL0 Copyright (c) Steve Scherf et al.
# Submitted via: audiograbber 1.80
#
DISCID=920d450b
DTITLE=JAMMIN - BLUES GUITAR
DYEAR=1900
DGENRE=
TTITLE0=TUNING
TTITLE1=SKIPPING AROUND
TTITLE2=PINTO
TTITLE3=DIRTY OLD MAN
TTITLE4=KING OF THE BEND
TTITLE5=T-BONE STEAK
TTITLE6=THE BAYOU
TTITLE7=COLD
TTITLE8=CRUEL WORLD
TTITLE9=JOHN Q. PUBLIC
TTITLE10=ROAD RUNNER
EXTD=
EXTT0=
EXTT1=
EXTT2=
EXTT3=
EXTT4=
EXTT5=
EXTT6=
EXTT7=
EXTT8=
EXTT9=
EXTT10=
PLAYORDER=
